<svg width="148" height="29" viewBox="0 0 148 29" fill="none" xmlns="http://www.w3.org/2000/svg">
<mask id="path-1-outside-1_320_288" maskUnits="userSpaceOnUse" x="0" y="-1" width="148" height="30" fill="black">
<rect fill="white" y="-1" width="148" height="30"/>
<path d="M6.72 22.112V17.24H10.08C10.9573 17.24 11.7413 17.1187 12.432 16.876C13.1413 16.6147 13.7387 16.2507 14.224 15.784C14.7093 15.2987 15.0827 14.72 15.344 14.048C15.6053 13.3573 15.736 12.5827 15.736 11.724C15.736 10.828 15.6053 10.044 15.344 9.372C15.0827 8.68133 14.7093 8.112 14.224 7.664C13.7387 7.19733 13.1413 6.852 12.432 6.628C11.7413 6.38533 10.9573 6.264 10.08 6.264H6.72V1.392H9.856C11.704 1.392 13.3187 1.65333 14.7 2.176C16.1 2.69867 17.2667 3.42667 18.2 4.36C19.1333 5.27467 19.8333 6.33867 20.3 7.552C20.7667 8.76533 21 10.0533 21 11.416V12.032C21 13.2827 20.7667 14.5147 20.3 15.728C19.8333 16.9227 19.1333 18.0053 18.2 18.976C17.2667 19.928 16.1 20.6933 14.7 21.272C13.3187 21.832 11.704 22.112 9.856 22.112H6.72ZM2.072 22.112V1.392H7.28V22.112H2.072ZM30.333 22.56C29.0263 22.56 27.869 22.336 26.861 21.888C25.853 21.44 25.0036 20.8333 24.313 20.068C23.6223 19.3027 23.0903 18.444 22.717 17.492C22.3623 16.54 22.185 15.56 22.185 14.552V13.992C22.185 12.9467 22.3623 11.948 22.717 10.996C23.0903 10.0253 23.613 9.16667 24.285 8.42C24.9756 7.67333 25.8156 7.08533 26.805 6.656C27.7943 6.208 28.9143 5.984 30.165 5.984C31.8263 5.984 33.2356 6.35733 34.393 7.104C35.5503 7.85067 36.437 8.84 37.053 10.072C37.669 11.2853 37.977 12.6107 37.977 14.048V15.672H24.313V12.928H35.037L33.273 14.16C33.273 13.2827 33.1516 12.5453 32.909 11.948C32.685 11.332 32.3396 10.8653 31.873 10.548C31.425 10.2307 30.8556 10.072 30.165 10.072C29.493 10.072 28.905 10.2307 28.401 10.548C27.9156 10.8467 27.5423 11.3133 27.281 11.948C27.0196 12.564 26.889 13.348 26.889 14.3C26.889 15.1587 27.0103 15.9053 27.253 16.54C27.4956 17.156 27.869 17.632 28.373 17.968C28.877 18.304 29.5303 18.472 30.333 18.472C31.0423 18.472 31.621 18.3507 32.069 18.108C32.5356 17.8653 32.8623 17.5387 33.049 17.128H37.697C37.473 18.1733 37.025 19.1067 36.353 19.928C35.6996 20.7493 34.8596 21.3933 33.833 21.86C32.825 22.3267 31.6583 22.56 30.333 22.56ZM42.8509 22L38.4269 6.544H43.6349L47.7509 22H42.8509ZM44.4749 22V17.744H49.4309V22H44.4749ZM46.2669 22L49.7669 6.544H54.6389L50.8309 22H46.2669ZM63.3106 22.56C62.004 22.56 60.8466 22.336 59.8386 21.888C58.8306 21.44 57.9813 20.8333 57.2906 20.068C56.6 19.3027 56.068 18.444 55.6946 17.492C55.34 16.54 55.1626 15.56 55.1626 14.552V13.992C55.1626 12.9467 55.34 11.948 55.6946 10.996C56.068 10.0253 56.5906 9.16667 57.2626 8.42C57.9533 7.67333 58.7933 7.08533 59.7826 6.656C60.772 6.208 61.892 5.984 63.1426 5.984C64.804 5.984 66.2133 6.35733 67.3706 7.104C68.528 7.85067 69.4146 8.84 70.0306 10.072C70.6466 11.2853 70.9546 12.6107 70.9546 14.048V15.672H57.2906V12.928H68.0146L66.2506 14.16C66.2506 13.2827 66.1293 12.5453 65.8866 11.948C65.6626 11.332 65.3173 10.8653 64.8506 10.548C64.4026 10.2307 63.8333 10.072 63.1426 10.072C62.4706 10.072 61.8826 10.2307 61.3786 10.548C60.8933 10.8467 60.52 11.3133 60.2586 11.948C59.9973 12.564 59.8666 13.348 59.8666 14.3C59.8666 15.1587 59.988 15.9053 60.2306 16.54C60.4733 17.156 60.8466 17.632 61.3506 17.968C61.8546 18.304 62.508 18.472 63.3106 18.472C64.02 18.472 64.5986 18.3507 65.0466 18.108C65.5133 17.8653 65.84 17.5387 66.0266 17.128H70.6746C70.4506 18.1733 70.0026 19.1067 69.3306 19.928C68.6773 20.7493 67.8373 21.3933 66.8106 21.86C65.8026 22.3267 64.636 22.56 63.3106 22.56ZM73.3047 22V1.56H78.4007V22H73.3047ZM71.5687 5.256V1.56H78.4007V5.256H71.5687ZM89.2988 22.56C87.9361 22.56 86.7228 22.3547 85.6588 21.944C84.5948 21.5333 83.6894 20.964 82.9428 20.236C82.2148 19.508 81.6548 18.668 81.2628 17.716C80.8894 16.764 80.7028 15.7467 80.7028 14.664V13.992C80.7028 12.872 80.8988 11.8267 81.2908 10.856C81.7014 9.88533 82.2801 9.036 83.0268 8.308C83.7734 7.58 84.6788 7.01067 85.7428 6.6C86.8068 6.18933 87.9921 5.984 89.2988 5.984C90.6241 5.984 91.8094 6.18933 92.8548 6.6C93.9188 7.01067 94.8241 7.58 95.5708 8.308C96.3174 9.036 96.8868 9.88533 97.2788 10.856C97.6894 11.8267 97.8948 12.872 97.8948 13.992V14.664C97.8948 15.7467 97.6988 16.764 97.3068 17.716C96.9334 18.668 96.3734 19.508 95.6268 20.236C94.8988 20.964 94.0028 21.5333 92.9388 21.944C91.8748 22.3547 90.6614 22.56 89.2988 22.56ZM89.2988 18.304C90.0828 18.304 90.7268 18.136 91.2308 17.8C91.7534 17.464 92.1454 16.9973 92.4068 16.4C92.6681 15.784 92.7988 15.0933 92.7988 14.328C92.7988 13.5253 92.6588 12.8253 92.3788 12.228C92.1174 11.612 91.7254 11.1267 91.2028 10.772C90.6801 10.4173 90.0454 10.24 89.2988 10.24C88.5521 10.24 87.9174 10.4173 87.3948 10.772C86.8721 11.1267 86.4708 11.612 86.1908 12.228C85.9294 12.8253 85.7988 13.5253 85.7988 14.328C85.7988 15.0933 85.9294 15.784 86.1908 16.4C86.4521 16.9973 86.8441 17.464 87.3668 17.8C87.8894 18.136 88.5334 18.304 89.2988 18.304ZM100.125 27.6V6.544H104.157V13.208H103.709C103.765 11.696 104.063 10.408 104.605 9.344C105.165 8.28 105.921 7.47733 106.873 6.936C107.825 6.376 108.917 6.096 110.149 6.096C111.213 6.096 112.174 6.292 113.033 6.684C113.891 7.05733 114.629 7.59867 115.245 8.308C115.861 8.99867 116.327 9.82 116.645 10.772C116.981 11.724 117.149 12.7693 117.149 13.908V14.58C117.149 15.7187 116.999 16.7733 116.701 17.744C116.402 18.696 115.954 19.536 115.357 20.264C114.759 20.9733 114.022 21.524 113.145 21.916C112.286 22.308 111.297 22.504 110.177 22.504C108.982 22.504 107.927 22.2707 107.013 21.804C106.098 21.3187 105.37 20.6 104.829 19.648C104.306 18.6773 104.026 17.464 103.989 16.008L105.221 17.52V27.6H100.125ZM108.637 18.304C109.309 18.304 109.897 18.136 110.401 17.8C110.923 17.4453 111.325 16.96 111.605 16.344C111.903 15.728 112.053 15.028 112.053 14.244C112.053 13.4413 111.903 12.7507 111.605 12.172C111.325 11.5747 110.933 11.1173 110.429 10.8C109.925 10.464 109.327 10.296 108.637 10.296C108.021 10.296 107.442 10.436 106.901 10.716C106.378 10.996 105.949 11.4067 105.613 11.948C105.277 12.4893 105.109 13.1427 105.109 13.908V14.86C105.109 15.588 105.286 16.2133 105.641 16.736C105.995 17.24 106.443 17.632 106.985 17.912C107.526 18.1733 108.077 18.304 108.637 18.304ZM126.641 22.56C125.334 22.56 124.177 22.336 123.169 21.888C122.161 21.44 121.312 20.8333 120.621 20.068C119.93 19.3027 119.398 18.444 119.025 17.492C118.67 16.54 118.493 15.56 118.493 14.552V13.992C118.493 12.9467 118.67 11.948 119.025 10.996C119.398 10.0253 119.921 9.16667 120.593 8.42C121.284 7.67333 122.124 7.08533 123.113 6.656C124.102 6.208 125.222 5.984 126.473 5.984C128.134 5.984 129.544 6.35733 130.701 7.104C131.858 7.85067 132.745 8.84 133.361 10.072C133.977 11.2853 134.285 12.6107 134.285 14.048V15.672H120.621V12.928H131.345L129.581 14.16C129.581 13.2827 129.46 12.5453 129.217 11.948C128.993 11.332 128.648 10.8653 128.181 10.548C127.733 10.2307 127.164 10.072 126.473 10.072C125.801 10.072 125.213 10.2307 124.709 10.548C124.224 10.8467 123.85 11.3133 123.589 11.948C123.328 12.564 123.197 13.348 123.197 14.3C123.197 15.1587 123.318 15.9053 123.561 16.54C123.804 17.156 124.177 17.632 124.681 17.968C125.185 18.304 125.838 18.472 126.641 18.472C127.35 18.472 127.929 18.3507 128.377 18.108C128.844 17.8653 129.17 17.5387 129.357 17.128H134.005C133.781 18.1733 133.333 19.1067 132.661 19.928C132.008 20.7493 131.168 21.3933 130.141 21.86C129.133 22.3267 127.966 22.56 126.641 22.56ZM136.411 22V6.544H140.443V13.264H140.387C140.387 11.0987 140.835 9.4 141.731 8.168C142.646 6.936 143.952 6.32 145.651 6.32H146.267V10.688H145.091C143.952 10.688 143.066 10.996 142.431 11.612C141.815 12.228 141.507 13.1147 141.507 14.272V22H136.411Z"/>
</mask>
<path d="M6.72 22.112H5.32V23.512H6.72V22.112ZM6.72 17.24V15.84H5.32V17.24H6.72ZM12.432 16.876L12.8961 18.1968L12.9061 18.1933L12.916 18.1897L12.432 16.876ZM14.224 15.784L15.1944 16.7932L15.2042 16.7837L15.2139 16.7739L14.224 15.784ZM15.344 14.048L16.6489 14.5554L16.6534 14.5434L15.344 14.048ZM15.344 9.372L14.0345 9.86747L14.0392 9.87942L15.344 9.372ZM14.224 7.664L13.2536 8.67317L13.2639 8.68305L13.2744 8.69272L14.224 7.664ZM12.432 6.628L11.9679 7.94884L11.9891 7.95627L12.0104 7.96301L12.432 6.628ZM6.72 6.264H5.32V7.664H6.72V6.264ZM6.72 1.392V-0.00800169H5.32V1.392H6.72ZM14.7 2.176L14.2045 3.48541L14.2103 3.48758L14.7 2.176ZM18.2 4.36L17.21 5.35L17.2201 5.3599L18.2 4.36ZM20.3 7.552L18.9933 8.05457L18.9933 8.05457L20.3 7.552ZM20.3 15.728L21.6041 16.2374L21.6067 16.2306L20.3 15.728ZM18.2 18.976L19.1997 19.9561L19.2092 19.9464L18.2 18.976ZM14.7 21.272L15.226 22.5695L15.2348 22.5658L14.7 21.272ZM2.072 22.112H0.672V23.512H2.072V22.112ZM2.072 1.392V-0.00800169H0.672V1.392H2.072ZM7.28 1.392H8.68V-0.00800169H7.28V1.392ZM7.28 22.112V23.512H8.68V22.112H7.28ZM8.12 22.112V17.24H5.32V22.112H8.12ZM6.72 18.64H10.08V15.84H6.72V18.64ZM10.08 18.64C11.0849 18.64 12.03 18.5011 12.8961 18.1968L11.9679 15.5552C11.4526 15.7362 10.8297 15.84 10.08 15.84V18.64ZM12.916 18.1897C13.7844 17.8697 14.5535 17.4094 15.1944 16.7932L13.2536 14.7748C12.9238 15.092 12.4982 15.3596 11.948 15.5623L12.916 18.1897ZM15.2139 16.7739C15.8435 16.1444 16.3207 15.399 16.6488 14.5554L14.0392 13.5406C13.8446 14.041 13.5752 14.4529 13.2341 14.794L15.2139 16.7739ZM16.6534 14.5434C16.9835 13.671 17.136 12.7248 17.136 11.724H14.336C14.336 12.4405 14.2271 13.0437 14.0346 13.5526L16.6534 14.5434ZM17.136 11.724C17.136 10.6951 16.9863 9.73233 16.6488 8.86457L14.0392 9.87942C14.2244 10.3557 14.336 10.9609 14.336 11.724H17.136ZM16.6534 8.87655C16.3243 8.00686 15.8367 7.24733 15.1736 6.63527L13.2744 8.69272C13.582 8.97667 13.841 9.3558 14.0346 9.86745L16.6534 8.87655ZM15.1944 6.65483C14.5379 6.02365 13.7466 5.575 12.8536 5.29298L12.0104 7.96301C12.536 8.12899 12.9394 8.37102 13.2536 8.67317L15.1944 6.65483ZM12.8961 5.30716C12.03 5.00287 11.0849 4.864 10.08 4.864V7.664C10.8297 7.664 11.4526 7.7678 11.9679 7.94884L12.8961 5.30716ZM10.08 4.864H6.72V7.664H10.08V4.864ZM8.12 6.264V1.392H5.32V6.264H8.12ZM6.72 2.792H9.856V-0.00800169H6.72V2.792ZM9.856 2.792C11.5756 2.792 13.0157 3.03557 14.2046 3.4854L15.1955 0.866599C13.6216 0.27109 11.8324 -0.00800169 9.856 -0.00800169V2.792ZM14.2103 3.48758C15.4473 3.94939 16.4362 4.57605 17.2101 5.34995L19.1899 3.37005C18.0972 2.27728 16.7527 1.44795 15.1897 0.864422L14.2103 3.48758ZM17.2201 5.3599C18.0109 6.13488 18.5991 7.02953 18.9933 8.05457L21.6067 7.04943C21.0676 5.6478 20.2558 4.41445 19.1799 3.3601L17.2201 5.3599ZM18.9933 8.05457C19.3954 9.09987 19.6 10.2168 19.6 11.416H22.4C22.4 9.8899 22.138 8.43079 21.6067 7.04943L18.9933 8.05457ZM19.6 11.416V12.032H22.4V11.416H19.6ZM19.6 12.032C19.6 13.1041 19.4008 14.166 18.9933 15.2254L21.6067 16.2306C22.1326 14.8633 22.4 13.4612 22.4 12.032H19.6ZM18.996 15.2186C18.5996 16.2332 18.003 17.161 17.1908 18.0056L19.2092 19.9464C20.2637 18.8497 21.067 17.6121 21.604 16.2374L18.996 15.2186ZM17.2003 17.9959C16.416 18.7959 15.4144 19.4619 14.1652 19.9782L15.2348 22.5658C16.7856 21.9248 18.1173 21.0601 19.1997 19.9561L17.2003 17.9959ZM14.174 19.9746C12.9946 20.4527 11.5655 20.712 9.856 20.712V23.512C11.8425 23.512 13.6427 23.2113 15.226 22.5694L14.174 19.9746ZM9.856 20.712H6.72V23.512H9.856V20.712ZM3.472 22.112V1.392H0.672V22.112H3.472ZM2.072 2.792H7.28V-0.00800169H2.072V2.792ZM5.88 1.392V22.112H8.68V1.392H5.88ZM7.28 20.712H2.072V23.512H7.28V20.712ZM26.861 21.888L26.2924 23.1673L26.2924 23.1673L26.861 21.888ZM24.313 20.068L25.3523 19.13L25.3523 19.13L24.313 20.068ZM22.717 17.492L21.4051 17.9808L21.4092 17.992L21.4136 18.0031L22.717 17.492ZM22.717 10.996L21.4103 10.4934L21.4076 10.5003L21.4051 10.5072L22.717 10.996ZM24.285 8.42L23.2572 7.46934L23.2507 7.47635L23.2444 7.48345L24.285 8.42ZM26.805 6.656L27.3623 7.94028L27.3724 7.93589L27.3825 7.93133L26.805 6.656ZM34.393 7.104L33.634 8.28041L33.634 8.28042L34.393 7.104ZM37.053 10.072L35.8007 10.6981L35.8046 10.7058L37.053 10.072ZM37.977 15.672V17.072H39.377V15.672H37.977ZM24.313 15.672H22.913V17.072H24.313V15.672ZM24.313 12.928V11.528H22.913V12.928H24.313ZM35.037 12.928L35.8386 14.0758L39.4866 11.528H35.037V12.928ZM33.273 14.16H31.873V16.8454L34.0746 15.3078L33.273 14.16ZM32.909 11.948L31.5933 12.4264L31.6021 12.4509L31.6119 12.4749L32.909 11.948ZM31.873 10.548L31.0637 11.6904L31.0747 11.6982L31.0857 11.7057L31.873 10.548ZM28.401 10.548L29.1347 11.7403L29.1408 11.7366L29.1469 11.7327L28.401 10.548ZM27.281 11.948L28.5698 12.4948L28.5727 12.4879L28.5755 12.481L27.281 11.948ZM27.253 16.54L25.9452 17.04L25.9504 17.0531L27.253 16.54ZM28.373 17.968L29.1496 16.8031L29.1495 16.8031L28.373 17.968ZM32.069 18.108L31.4231 16.8659L31.4126 16.8714L31.4022 16.877L32.069 18.108ZM33.049 17.128V15.728H32.1475L31.7745 16.5487L33.049 17.128ZM37.697 17.128L39.0659 17.4213L39.4288 15.728H37.697V17.128ZM36.353 19.928L35.2694 19.0415L35.2633 19.0489L35.2573 19.0565L36.353 19.928ZM33.833 21.86L33.2536 20.5855L33.2448 20.5895L33.833 21.86ZM30.333 21.16C29.1865 21.16 28.2286 20.9638 27.4296 20.6087L26.2924 23.1673C27.5093 23.7082 28.8661 23.96 30.333 23.96V21.16ZM27.4296 20.6087C26.5879 20.2346 25.9027 19.7399 25.3523 19.13L23.2736 21.0059C24.1046 21.9268 25.118 22.6454 26.2924 23.1673L27.4296 20.6087ZM25.3523 19.13C24.7737 18.4889 24.3316 17.7746 24.0203 16.9809L21.4136 18.0031C21.849 19.1134 22.4709 20.1164 23.2736 21.006L25.3523 19.13ZM24.0289 17.0032C23.732 16.2064 23.585 15.3918 23.585 14.552H20.785C20.785 15.7282 20.9926 16.8736 21.4051 17.9808L24.0289 17.0032ZM23.585 14.552V13.992H20.785V14.552H23.585ZM23.585 13.992C23.585 13.1086 23.7342 12.2758 24.0289 11.4848L21.4051 10.5072C20.9904 11.6202 20.785 12.7847 20.785 13.992H23.585ZM24.0237 11.4986C24.3378 10.6819 24.7721 9.97155 25.3256 9.35655L23.2444 7.48345C22.4539 8.36178 21.8428 9.36879 21.4103 10.4934L24.0237 11.4986ZM25.3127 9.37066C25.8636 8.77514 26.5403 8.29701 27.3623 7.94028L26.2476 5.37172C25.091 5.87366 24.0877 6.57152 23.2572 7.46934L25.3127 9.37066ZM27.3825 7.93133C28.1648 7.57706 29.0834 7.384 30.165 7.384V4.584C28.7452 4.584 27.4238 4.83894 26.2275 5.38066L27.3825 7.93133ZM30.165 7.384C31.6131 7.384 32.7458 7.70739 33.634 8.28041L35.1519 5.92758C33.7255 5.00728 32.0395 4.584 30.165 4.584V7.384ZM33.634 8.28042C34.5806 8.89112 35.2969 9.69038 35.8008 10.6981L38.3052 9.4459C37.577 7.98962 36.52 6.81022 35.1519 5.92758L33.634 8.28042ZM35.8046 10.7058C36.3153 11.7117 36.577 12.8182 36.577 14.048H39.377C39.377 12.4032 39.0226 10.859 38.3013 9.43823L35.8046 10.7058ZM36.577 14.048V15.672H39.377V14.048H36.577ZM37.977 14.272H24.313V17.072H37.977V14.272ZM25.713 15.672V12.928H22.913V15.672H25.713ZM24.313 14.328H35.037V11.528H24.313V14.328ZM34.2353 11.7802L32.4713 13.0122L34.0746 15.3078L35.8386 14.0758L34.2353 11.7802ZM34.673 14.16C34.673 13.1631 34.5364 12.2343 34.206 11.4211L31.6119 12.4749C31.7669 12.8563 31.873 13.4022 31.873 14.16H34.673ZM34.2247 11.4696C33.917 10.6234 33.4076 9.89856 32.6602 9.3903L31.0857 11.7057C31.2716 11.8321 31.453 12.0406 31.5933 12.4264L34.2247 11.4696ZM32.6822 9.40557C31.9428 8.88186 31.0703 8.672 30.165 8.672V11.472C30.641 11.472 30.9071 11.5795 31.0637 11.6904L32.6822 9.40557ZM30.165 8.672C29.2638 8.672 28.4101 8.88783 27.655 9.36327L29.1469 11.7327C29.3998 11.5735 29.7221 11.472 30.165 11.472V8.672ZM27.6672 9.35568C26.882 9.83891 26.3368 10.564 25.9864 11.4149L28.5755 12.481C28.7478 12.0626 28.9493 11.8544 29.1347 11.7403L27.6672 9.35568ZM25.9922 11.4012C25.6334 12.2469 25.489 13.2336 25.489 14.3H28.289C28.289 13.4624 28.4059 12.8811 28.5698 12.4948L25.9922 11.4012ZM25.489 14.3C25.489 15.2864 25.6279 16.2098 25.9453 17.04L28.5606 16.04C28.3927 15.6009 28.289 15.031 28.289 14.3H25.489ZM25.9504 17.0531C26.2876 17.909 26.8325 18.6236 27.5964 19.1329L29.1495 16.8031C28.9054 16.6404 28.7037 16.403 28.5555 16.0269L25.9504 17.0531ZM27.5964 19.1329C28.3942 19.6648 29.3422 19.872 30.333 19.872V17.072C29.7184 17.072 29.3597 16.9432 29.1496 16.8031L27.5964 19.1329ZM30.333 19.872C31.1887 19.872 32.0185 19.7275 32.7358 19.339L31.4022 16.877C31.2235 16.9738 30.8959 17.072 30.333 17.072V19.872ZM32.7149 19.3501C33.4112 18.988 33.9865 18.4487 34.3235 17.7073L31.7745 16.5487C31.7381 16.6286 31.6601 16.7426 31.4231 16.8659L32.7149 19.3501ZM33.049 18.528H37.697V15.728H33.049V18.528ZM36.328 16.8347C36.1503 17.6641 35.7994 18.3937 35.2694 19.0415L37.4365 20.8145C38.2505 19.8196 38.7956 18.6826 39.0659 17.4213L36.328 16.8347ZM35.2573 19.0565C34.752 19.6918 34.0941 20.2034 33.2536 20.5855L34.4123 23.1345C35.6251 22.5832 36.6473 21.8069 37.4486 20.7995L35.2573 19.0565ZM33.2448 20.5895C32.4533 20.956 31.4939 21.16 30.333 21.16V23.96C31.8227 23.96 33.1966 23.6973 34.4211 23.1305L33.2448 20.5895ZM42.8509 22L41.505 22.3853L41.7954 23.4H42.8509V22ZM38.4269 6.544V5.144H36.57L37.081 6.92925L38.4269 6.544ZM43.6349 6.544L44.9878 6.18373L44.7109 5.144H43.6349V6.544ZM47.7509 22V23.4H49.5726L49.1038 21.6397L47.7509 22ZM44.4749 22H43.0749V23.4H44.4749V22ZM44.4749 17.744V16.344H43.0749V17.744H44.4749ZM49.4309 17.744H50.8309V16.344H49.4309V17.744ZM49.4309 22V23.4H50.8309V22H49.4309ZM46.2669 22L44.9015 21.6908L44.5145 23.4H46.2669V22ZM49.7669 6.544V5.144H48.6485L48.4015 6.2348L49.7669 6.544ZM54.6389 6.544L55.9983 6.87891L56.4257 5.144H54.6389V6.544ZM50.8309 22V23.4H51.9279L52.1903 22.3349L50.8309 22ZM44.1969 21.6147L39.7729 6.15875L37.081 6.92925L41.505 22.3853L44.1969 21.6147ZM38.4269 7.944H43.6349V5.144H38.4269V7.944ZM42.2821 6.90427L46.3981 22.3603L49.1038 21.6397L44.9878 6.18373L42.2821 6.90427ZM47.7509 20.6H42.8509V23.4H47.7509V20.6ZM45.8749 22V17.744H43.0749V22H45.8749ZM44.4749 19.144H49.4309V16.344H44.4749V19.144ZM48.0309 17.744V22H50.8309V17.744H48.0309ZM49.4309 20.6H44.4749V23.4H49.4309V20.6ZM47.6324 22.3092L51.1324 6.8532L48.4015 6.2348L44.9015 21.6908L47.6324 22.3092ZM49.7669 7.944H54.6389V5.144H49.7669V7.944ZM53.2796 6.20909L49.4716 21.6651L52.1903 22.3349L55.9983 6.87891L53.2796 6.20909ZM50.8309 20.6H46.2669V23.4H50.8309V20.6ZM59.8386 21.888L59.27 23.1673L59.27 23.1673L59.8386 21.888ZM57.2906 20.068L58.33 19.13L58.33 19.13L57.2906 20.068ZM55.6946 17.492L54.3827 17.9808L54.3869 17.992L54.3913 18.0031L55.6946 17.492ZM55.6946 10.996L54.3879 10.4934L54.3853 10.5003L54.3827 10.5072L55.6946 10.996ZM57.2626 8.42L56.2349 7.46934L56.2284 7.47635L56.222 7.48345L57.2626 8.42ZM59.7826 6.656L60.34 7.94028L60.3501 7.93589L60.3601 7.93133L59.7826 6.656ZM67.3706 7.104L66.6116 8.28041L66.6116 8.28042L67.3706 7.104ZM70.0306 10.072L68.7784 10.6981L68.7823 10.7058L70.0306 10.072ZM70.9546 15.672V17.072H72.3546V15.672H70.9546ZM57.2906 15.672H55.8906V17.072H57.2906V15.672ZM57.2906 12.928V11.528H55.8906V12.928H57.2906ZM68.0146 12.928L68.8162 14.0758L72.4642 11.528H68.0146V12.928ZM66.2506 14.16H64.8506V16.8454L67.0522 15.3078L66.2506 14.16ZM65.8866 11.948L64.5709 12.4264L64.5798 12.4509L64.5896 12.4749L65.8866 11.948ZM64.8506 10.548L64.0414 11.6904L64.0523 11.6982L64.0634 11.7057L64.8506 10.548ZM61.3786 10.548L62.1124 11.7403L62.1185 11.7366L62.1246 11.7327L61.3786 10.548ZM60.2586 11.948L61.5474 12.4948L61.5503 12.4879L61.5532 12.481L60.2586 11.948ZM60.2306 16.54L58.9229 17.04L58.9281 17.0531L60.2306 16.54ZM61.3506 17.968L62.1272 16.8031L62.1272 16.8031L61.3506 17.968ZM65.0466 18.108L64.4007 16.8659L64.3902 16.8714L64.3798 16.877L65.0466 18.108ZM66.0266 17.128V15.728H65.1251L64.7521 16.5487L66.0266 17.128ZM70.6746 17.128L72.0435 17.4213L72.4064 15.728H70.6746V17.128ZM69.3306 19.928L68.2471 19.0415L68.241 19.0489L68.235 19.0565L69.3306 19.928ZM66.8106 21.86L66.2313 20.5855L66.2225 20.5895L66.8106 21.86ZM63.3106 21.16C62.1642 21.16 61.2063 20.9638 60.4072 20.6087L59.27 23.1673C60.487 23.7082 61.8437 23.96 63.3106 23.96V21.16ZM60.4072 20.6087C59.5656 20.2346 58.8803 19.7399 58.33 19.13L56.2513 21.0059C57.0823 21.9268 58.0957 22.6454 59.27 23.1673L60.4072 20.6087ZM58.33 19.13C57.7514 18.4889 57.3092 17.7746 56.998 16.9809L54.3913 18.0031C54.8267 19.1134 55.4486 20.1164 56.2513 21.006L58.33 19.13ZM57.0065 17.0032C56.7097 16.2064 56.5626 15.3918 56.5626 14.552H53.7626C53.7626 15.7282 53.9703 16.8736 54.3827 17.9808L57.0065 17.0032ZM56.5626 14.552V13.992H53.7626V14.552H56.5626ZM56.5626 13.992C56.5626 13.1086 56.7118 12.2758 57.0065 11.4848L54.3827 10.5072C53.9681 11.6202 53.7626 12.7847 53.7626 13.992H56.5626ZM57.0013 11.4986C57.3154 10.6819 57.7497 9.97155 58.3032 9.35655L56.222 7.48345C55.4315 8.36178 54.8205 9.36879 54.3879 10.4934L57.0013 11.4986ZM58.2904 9.37066C58.8412 8.77514 59.5179 8.29701 60.34 7.94028L59.2253 5.37172C58.0686 5.87366 57.0654 6.57152 56.2349 7.46934L58.2904 9.37066ZM60.3601 7.93133C61.1425 7.57706 62.0611 7.384 63.1426 7.384V4.584C61.7228 4.584 60.4014 4.83894 59.2051 5.38066L60.3601 7.93133ZM63.1426 7.384C64.5908 7.384 65.7235 7.70739 66.6116 8.28041L68.1296 5.92758C66.7031 5.00728 65.0171 4.584 63.1426 4.584V7.384ZM66.6116 8.28042C67.5582 8.89112 68.2746 9.69038 68.7784 10.6981L71.2828 9.4459C70.5547 7.98962 69.4977 6.81022 68.1296 5.92758L66.6116 8.28042ZM68.7823 10.7058C69.293 11.7117 69.5546 12.8182 69.5546 14.048H72.3546C72.3546 12.4032 72.0003 10.859 71.279 9.43823L68.7823 10.7058ZM69.5546 14.048V15.672H72.3546V14.048H69.5546ZM70.9546 14.272H57.2906V17.072H70.9546V14.272ZM58.6906 15.672V12.928H55.8906V15.672H58.6906ZM57.2906 14.328H68.0146V11.528H57.2906V14.328ZM67.213 11.7802L65.449 13.0122L67.0522 15.3078L68.8162 14.0758L67.213 11.7802ZM67.6506 14.16C67.6506 13.1631 67.5141 12.2343 67.1837 11.4211L64.5896 12.4749C64.7445 12.8563 64.8506 13.4022 64.8506 14.16H67.6506ZM67.2023 11.4696C66.8946 10.6234 66.3853 9.89856 65.6379 9.3903L64.0634 11.7057C64.2493 11.8321 64.4306 12.0406 64.5709 12.4264L67.2023 11.4696ZM65.6598 9.40557C64.9205 8.88186 64.0479 8.672 63.1426 8.672V11.472C63.6187 11.472 63.8848 11.5795 64.0414 11.6904L65.6598 9.40557ZM63.1426 8.672C62.2415 8.672 61.3878 8.88783 60.6327 9.36327L62.1246 11.7327C62.3774 11.5735 62.6998 11.472 63.1426 11.472V8.672ZM60.6449 9.35568C59.8596 9.83891 59.3145 10.564 58.9641 11.4149L61.5532 12.481C61.7255 12.0626 61.9269 11.8544 62.1124 11.7403L60.6449 9.35568ZM58.9698 11.4012C58.611 12.2469 58.4666 13.2336 58.4666 14.3H61.2666C61.2666 13.4624 61.3836 12.8811 61.5474 12.4948L58.9698 11.4012ZM58.4666 14.3C58.4666 15.2864 58.6055 16.2098 58.923 17.04L61.5383 16.04C61.3704 15.6009 61.2666 15.031 61.2666 14.3H58.4666ZM58.9281 17.0531C59.2652 17.909 59.8102 18.6236 60.574 19.1329L62.1272 16.8031C61.8831 16.6404 61.6814 16.403 61.5332 16.0269L58.9281 17.0531ZM60.574 19.1329C61.3719 19.6648 62.3198 19.872 63.3106 19.872V17.072C62.6961 17.072 62.3374 16.9432 62.1272 16.8031L60.574 19.1329ZM63.3106 19.872C64.1663 19.872 64.9961 19.7275 65.7134 19.339L64.3798 16.877C64.2011 16.9738 63.8736 17.072 63.3106 17.072V19.872ZM65.6925 19.3501C66.3888 18.988 66.9641 18.4487 67.3011 17.7073L64.7521 16.5487C64.7158 16.6286 64.6378 16.7426 64.4007 16.8659L65.6925 19.3501ZM66.0266 18.528H70.6746V15.728H66.0266V18.528ZM69.3057 16.8347C69.128 17.6641 68.7771 18.3937 68.2471 19.0415L70.4142 20.8145C71.2282 19.8196 71.7733 18.6826 72.0435 17.4213L69.3057 16.8347ZM68.235 19.0565C67.7296 19.6918 67.0718 20.2034 66.2313 20.5855L67.3899 23.1345C68.6028 22.5832 69.625 21.8069 70.4263 20.7995L68.235 19.0565ZM66.2225 20.5895C65.4309 20.956 64.4715 21.16 63.3106 21.16V23.96C64.8004 23.96 66.1743 23.6973 67.3988 23.1305L66.2225 20.5895ZM73.3047 22H71.9047V23.4H73.3047V22ZM73.3047 1.56V0.159999H71.9047V1.56H73.3047ZM78.4007 1.56H79.8007V0.159999H78.4007V1.56ZM78.4007 22V23.4H79.8007V22H78.4007ZM71.5687 5.256H70.1687V6.656H71.5687V5.256ZM71.5687 1.56V0.159999H70.1687V1.56H71.5687ZM78.4007 1.56H79.8007V0.159999H78.4007V1.56ZM78.4007 5.256V6.656H79.8007V5.256H78.4007ZM74.7047 22V1.56H71.9047V22H74.7047ZM73.3047 2.96H78.4007V0.159999H73.3047V2.96ZM77.0007 1.56V22H79.8007V1.56H77.0007ZM78.4007 20.6H73.3047V23.4H78.4007V20.6ZM72.9687 5.256V1.56H70.1687V5.256H72.9687ZM71.5687 2.96H78.4007V0.159999H71.5687V2.96ZM77.0007 1.56V5.256H79.8007V1.56H77.0007ZM78.4007 3.856H71.5687V6.656H78.4007V3.856ZM85.6588 21.944L86.1629 20.6379L86.1629 20.6379L85.6588 21.944ZM82.9428 20.236L81.9528 21.2259L81.9591 21.2322L81.9654 21.2384L82.9428 20.236ZM81.2628 17.716L79.9594 18.2271L79.9637 18.2381L79.9682 18.249L81.2628 17.716ZM81.2908 10.856L80.0014 10.3105L79.9969 10.3211L79.9926 10.3318L81.2908 10.856ZM83.0268 8.308L82.0494 7.3056L82.0494 7.3056L83.0268 8.308ZM92.8548 6.6L92.3429 7.90307L92.3507 7.90609L92.8548 6.6ZM95.5708 8.308L94.5934 9.3104L94.5934 9.3104L95.5708 8.308ZM97.2788 10.856L95.9806 11.3802L95.9849 11.3909L95.9894 11.4015L97.2788 10.856ZM97.3068 17.716L96.0122 17.183L96.0077 17.1939L96.0034 17.2049L97.3068 17.716ZM95.6268 20.236L94.6494 19.2336L94.6431 19.2398L94.6368 19.2461L95.6268 20.236ZM92.9388 21.944L92.4347 20.6379L92.4347 20.6379L92.9388 21.944ZM91.2308 17.8L90.4737 16.6224L90.4639 16.6287L90.4542 16.6351L91.2308 17.8ZM92.4068 16.4L93.6894 16.9611L93.6925 16.954L93.6956 16.9468L92.4068 16.4ZM92.3788 12.228L91.09 12.7748L91.1001 12.7987L91.1111 12.8222L92.3788 12.228ZM87.3948 10.772L86.6087 9.61353L86.6087 9.61353L87.3948 10.772ZM86.1908 12.228L84.9163 11.6487L84.9121 11.6577L84.9082 11.6669L86.1908 12.228ZM86.1908 16.4L84.902 16.9468L84.905 16.954L84.9082 16.9611L86.1908 16.4ZM89.2988 21.16C88.0757 21.16 87.0381 20.9757 86.1629 20.6379L85.1547 23.2501C86.4075 23.7336 87.7965 23.96 89.2988 23.96V21.16ZM86.1629 20.6379C85.2589 20.289 84.519 19.8175 83.9201 19.2336L81.9654 21.2384C82.8599 22.1105 83.9307 22.7777 85.1547 23.2501L86.1629 20.6379ZM83.9327 19.2461C83.3354 18.6487 82.879 17.964 82.5573 17.1829L79.9682 18.249C80.4306 19.372 81.0941 20.3673 81.9528 21.2259L83.9327 19.2461ZM82.5661 17.2049C82.2604 16.4251 82.1028 15.5821 82.1028 14.664H79.3028C79.3028 15.9112 79.5185 17.1029 79.9594 18.2271L82.5661 17.2049ZM82.1028 14.664V13.992H79.3028V14.664H82.1028ZM82.1028 13.992C82.1028 13.039 82.2688 12.1729 82.5889 11.3802L79.9926 10.3318C79.5288 11.4804 79.3028 12.705 79.3028 13.992H82.1028ZM82.5801 11.4015C82.919 10.6005 83.3923 9.90695 84.0041 9.3104L82.0494 7.3056C81.168 8.16505 80.4839 9.17018 80.0014 10.3105L82.5801 11.4015ZM84.0041 9.3104C84.603 8.72652 85.3429 8.25501 86.2469 7.90609L85.2387 5.29391C84.0147 5.76633 82.9439 6.43348 82.0494 7.3056L84.0041 9.3104ZM86.2469 7.90609C87.1284 7.56585 88.1397 7.384 89.2988 7.384V4.584C87.8446 4.584 86.4851 4.81282 85.2387 5.29391L86.2469 7.90609ZM89.2988 7.384C90.4799 7.384 91.4871 7.56686 92.3429 7.90305L93.3667 5.29695C92.1318 4.8118 90.7684 4.584 89.2988 4.584V7.384ZM92.3507 7.90609C93.2547 8.25501 93.9946 8.72652 94.5934 9.3104L96.5481 7.3056C95.6536 6.43348 94.5829 5.76633 93.3589 5.29391L92.3507 7.90609ZM94.5934 9.3104C95.2006 9.90243 95.661 10.5888 95.9806 11.3802L98.5769 10.3318C98.1126 9.18191 97.4342 8.16957 96.5481 7.3056L94.5934 9.3104ZM95.9894 11.4015C96.3226 12.1889 96.4948 13.0475 96.4948 13.992H99.2948C99.2948 12.6965 99.0563 11.4644 98.5681 10.3105L95.9894 11.4015ZM96.4948 13.992V14.664H99.2948V13.992H96.4948ZM96.4948 14.664C96.4948 15.5734 96.331 16.4087 96.0122 17.183L98.6013 18.249C99.0665 17.1193 99.2948 15.9199 99.2948 14.664H96.4948ZM96.0034 17.2049C95.7041 17.9681 95.2567 18.6415 94.6494 19.2336L96.6041 21.2384C97.4902 20.3745 98.1628 19.3679 98.6101 18.2271L96.0034 17.2049ZM94.6368 19.2461C94.0612 19.8217 93.3362 20.29 92.4347 20.6379L93.4429 23.2501C94.6694 22.7767 95.7364 22.1063 96.6167 21.2259L94.6368 19.2461ZM92.4347 20.6379C91.5595 20.9757 90.5218 21.16 89.2988 21.16V23.96C90.801 23.96 92.1901 23.7336 93.4429 23.2501L92.4347 20.6379ZM89.2988 19.704C90.2786 19.704 91.2144 19.4935 92.0074 18.9649L90.4542 16.6351C90.2391 16.7785 89.8869 16.904 89.2988 16.904V19.704ZM91.9878 18.9776C92.7544 18.4849 93.3232 17.7981 93.6894 16.9611L91.1242 15.8389C90.9677 16.1965 90.7525 16.4431 90.4737 16.6224L91.9878 18.9776ZM93.6956 16.9468C94.0401 16.1347 94.1988 15.2544 94.1988 14.328H91.3988C91.3988 14.9323 91.2961 15.4333 91.118 15.8532L93.6956 16.9468ZM94.1988 14.328C94.1988 13.3636 94.0304 12.4529 93.6464 11.6338L91.1111 12.8222C91.2872 13.1977 91.3988 13.687 91.3988 14.328H94.1988ZM93.6676 11.6812C93.3076 10.8327 92.748 10.1286 91.9889 9.61353L90.4167 11.9305C90.7029 12.1247 90.9273 12.3913 91.09 12.7748L93.6676 11.6812ZM91.9889 9.61353C91.1946 9.07454 90.2736 8.84 89.2988 8.84V11.64C89.8173 11.64 90.1656 11.7601 90.4167 11.9305L91.9889 9.61353ZM89.2988 8.84C88.324 8.84 87.403 9.07454 86.6087 9.61353L88.1809 11.9305C88.4319 11.7601 88.7803 11.64 89.2988 11.64V8.84ZM86.6087 9.61353C85.8578 10.123 85.2949 10.8158 84.9163 11.6487L87.4653 12.8073C87.6467 12.4082 87.8864 12.1303 88.1809 11.9305L86.6087 9.61353ZM84.9082 11.6669C84.5537 12.477 84.3988 13.3756 84.3988 14.328H87.1988C87.1988 13.675 87.3052 13.1736 87.4734 12.7891L84.9082 11.6669ZM84.3988 14.328C84.3988 15.2544 84.5575 16.1347 84.902 16.9468L87.4796 15.8532C87.3014 15.4333 87.1988 14.9323 87.1988 14.328H84.3988ZM84.9082 16.9611C85.2743 17.7981 85.8431 18.4849 86.6097 18.9776L88.1238 16.6224C87.8451 16.4431 87.6299 16.1965 87.4734 15.8389L84.9082 16.9611ZM86.6097 18.9776C87.4055 19.4892 88.3274 19.704 89.2988 19.704V16.904C88.7395 16.904 88.3734 16.7828 88.1238 16.6224L86.6097 18.9776ZM100.125 27.6H98.7247V29H100.125V27.6ZM100.125 6.544V5.144H98.7247V6.544H100.125ZM104.157 6.544H105.557V5.144H104.157V6.544ZM104.157 13.208V14.608H105.557V13.208H104.157ZM103.709 13.208L102.31 13.1562L102.256 14.608H103.709V13.208ZM104.605 9.344L103.366 8.69195L103.361 8.70053L103.357 8.70916L104.605 9.344ZM106.873 6.936L107.565 8.153L107.574 8.14792L107.583 8.14271L106.873 6.936ZM113.033 6.684L112.451 7.95756L112.463 7.96283L112.475 7.9679L113.033 6.684ZM115.245 8.308L114.188 9.22596L114.194 9.23295L114.2 9.23986L115.245 8.308ZM116.645 10.772L115.317 11.2147L115.32 11.2264L115.325 11.2379L116.645 10.772ZM116.701 17.744L118.037 18.1631L118.039 18.1557L116.701 17.744ZM115.357 20.264L116.428 21.1658L116.433 21.159L116.439 21.152L115.357 20.264ZM113.145 21.916L112.574 20.6377L112.563 20.6424L113.145 21.916ZM107.013 21.804L106.357 23.0407L106.366 23.046L106.376 23.0511L107.013 21.804ZM104.829 19.648L103.596 20.3117L103.604 20.326L103.612 20.34L104.829 19.648ZM103.989 16.008L105.074 15.1237L102.484 11.9451L102.589 16.0439L103.989 16.008ZM105.221 17.52H106.621V17.0218L106.306 16.6357L105.221 17.52ZM105.221 27.6V29H106.621V27.6H105.221ZM110.401 17.8L111.177 18.9649L111.187 18.9585L110.401 17.8ZM111.605 16.344L110.345 15.7332L110.337 15.7489L110.33 15.7647L111.605 16.344ZM111.605 12.172L110.337 12.7662L110.348 12.7904L110.361 12.8141L111.605 12.172ZM110.429 10.8L109.652 11.9649L109.667 11.975L109.683 11.9847L110.429 10.8ZM106.901 10.716L106.258 9.47249L106.249 9.47715L106.24 9.48193L106.901 10.716ZM105.613 11.948L106.802 12.6863L106.802 12.6863L105.613 11.948ZM105.641 16.736L104.482 17.5221L104.489 17.532L104.496 17.5417L105.641 16.736ZM106.985 17.912L106.342 19.1555L106.359 19.1644L106.376 19.1728L106.985 17.912ZM101.525 27.6V6.544H98.7247V27.6H101.525ZM100.125 7.944H104.157V5.144H100.125V7.944ZM102.757 6.544V13.208H105.557V6.544H102.757ZM104.157 11.808H103.709V14.608H104.157V11.808ZM105.108 13.2598C105.158 11.8983 105.424 10.8201 105.853 9.97884L103.357 8.70916C102.702 9.99586 102.371 11.4937 102.31 13.1562L105.108 13.2598ZM105.844 9.99604C106.292 9.14469 106.868 8.5493 107.565 8.153L106.181 5.71899C104.974 6.40536 104.038 7.41531 103.366 8.69195L105.844 9.99604ZM107.583 8.14271C108.295 7.72344 109.137 7.496 110.149 7.496V4.696C108.697 4.696 107.354 5.02856 106.163 5.72929L107.583 8.14271ZM110.149 7.496C111.038 7.496 111.797 7.65889 112.451 7.95756L113.614 5.41044C112.551 4.92511 111.388 4.696 110.149 4.696V7.496ZM112.475 7.9679C113.141 8.25769 113.708 8.67373 114.188 9.22596L116.302 7.39004C115.549 6.52361 114.642 5.85698 113.591 5.4001L112.475 7.9679ZM114.2 9.23986C114.679 9.77682 115.054 10.428 115.317 11.2147L117.973 10.3293C117.6 9.21205 117.043 8.22051 116.29 7.37614L114.2 9.23986ZM115.325 11.2379C115.601 12.0224 115.749 12.908 115.749 13.908H118.549C118.549 12.6307 118.36 11.4256 117.965 10.3061L115.325 11.2379ZM115.749 13.908V14.58H118.549V13.908H115.749ZM115.749 14.58C115.749 15.5958 115.616 16.5101 115.363 17.3323L118.039 18.1557C118.383 17.0366 118.549 15.8415 118.549 14.58H115.749ZM115.365 17.3249C115.117 18.1161 114.751 18.7947 114.274 19.376L116.439 21.152C117.157 20.2773 117.687 19.2759 118.037 18.1631L115.365 17.3249ZM114.286 19.3622C113.83 19.9041 113.265 20.3287 112.574 20.6378L113.716 23.1942C114.779 22.7193 115.689 22.0426 116.428 21.1658L114.286 19.3622ZM112.563 20.6424C111.918 20.937 111.133 21.104 110.177 21.104V23.904C111.46 23.904 112.654 23.679 113.726 23.1896L112.563 20.6424ZM110.177 21.104C109.167 21.104 108.337 20.9078 107.649 20.5569L106.376 23.0511C107.518 23.6335 108.797 23.904 110.177 23.904V21.104ZM107.669 20.5673C107.003 20.2139 106.464 19.6908 106.046 18.956L103.612 20.34C104.277 21.5092 105.193 22.4234 106.357 23.0407L107.669 20.5673ZM106.061 18.9843C105.671 18.2588 105.422 17.2763 105.388 15.9721L102.589 16.0439C102.63 17.6517 102.941 19.0959 103.596 20.3117L106.061 18.9843ZM102.903 16.8923L104.135 18.4043L106.306 16.6357L105.074 15.1237L102.903 16.8923ZM103.821 17.52V27.6H106.621V17.52H103.821ZM105.221 26.2H100.125V29H105.221V26.2ZM108.637 19.704C109.554 19.704 110.419 19.4707 111.177 18.9649L109.624 16.6351C109.375 16.8013 109.064 16.904 108.637 16.904V19.704ZM111.187 18.9585C111.938 18.449 112.501 17.7562 112.879 16.9233L110.33 15.7647C110.149 16.1638 109.909 16.4417 109.615 16.6415L111.187 18.9585ZM112.864 16.9548C113.268 16.1225 113.453 15.2088 113.453 14.244H110.653C110.653 14.8472 110.539 15.3335 110.345 15.7332L112.864 16.9548ZM113.453 14.244C113.453 13.269 113.271 12.348 112.849 11.5299L110.361 12.8141C110.536 13.1533 110.653 13.6136 110.653 14.244H113.453ZM112.872 11.5778C112.491 10.7648 111.93 10.0906 111.175 9.61527L109.683 11.9847C109.936 12.1441 110.158 12.3845 110.337 12.7662L112.872 11.5778ZM111.205 9.63513C110.44 9.12506 109.564 8.896 108.637 8.896V11.696C109.091 11.696 109.409 11.8029 109.652 11.9649L111.205 9.63513ZM108.637 8.896C107.799 8.896 107 9.08852 106.258 9.47249L107.544 11.9595C107.884 11.7835 108.242 11.696 108.637 11.696V8.896ZM106.24 9.48193C105.484 9.88658 104.879 10.4757 104.423 11.2097L106.802 12.6863C107.019 12.3376 107.272 12.1054 107.562 11.9501L106.24 9.48193ZM104.423 11.2097C103.924 12.0137 103.709 12.9346 103.709 13.908H106.509C106.509 13.3507 106.629 12.965 106.802 12.6863L104.423 11.2097ZM103.709 13.908V14.86H106.509V13.908H103.709ZM103.709 14.86C103.709 15.8243 103.947 16.7336 104.482 17.5221L106.799 15.9499C106.625 15.6931 106.509 15.3517 106.509 14.86H103.709ZM104.496 17.5417C104.979 18.2277 105.598 18.7708 106.342 19.1555L107.628 16.6685C107.289 16.4932 107.012 16.2523 106.786 15.9303L104.496 17.5417ZM106.376 19.1728C107.093 19.5189 107.851 19.704 108.637 19.704V16.904C108.303 16.904 107.959 16.8278 107.593 16.6512L106.376 19.1728ZM123.169 21.888L122.6 23.1673L122.6 23.1673L123.169 21.888ZM120.621 20.068L121.66 19.13L121.66 19.13L120.621 20.068ZM119.025 17.492L117.713 17.9808L117.717 17.992L117.722 18.0031L119.025 17.492ZM119.025 10.996L117.718 10.4934L117.716 10.5003L117.713 10.5072L119.025 10.996ZM120.593 8.42L119.565 7.46934L119.559 7.47635L119.552 7.48345L120.593 8.42ZM123.113 6.656L123.67 7.94028L123.68 7.93589L123.69 7.93133L123.113 6.656ZM130.701 7.104L129.942 8.28041L129.942 8.28042L130.701 7.104ZM133.361 10.072L132.109 10.6981L132.113 10.7058L133.361 10.072ZM134.285 15.672V17.072H135.685V15.672H134.285ZM120.621 15.672H119.221V17.072H120.621V15.672ZM120.621 12.928V11.528H119.221V12.928H120.621ZM131.345 12.928L132.147 14.0758L135.795 11.528H131.345V12.928ZM129.581 14.16H128.181V16.8454L130.383 15.3078L129.581 14.16ZM129.217 11.948L127.901 12.4264L127.91 12.4509L127.92 12.4749L129.217 11.948ZM128.181 10.548L127.372 11.6904L127.383 11.6982L127.394 11.7057L128.181 10.548ZM124.709 10.548L125.443 11.7403L125.449 11.7366L125.455 11.7327L124.709 10.548ZM123.589 11.948L124.878 12.4948L124.881 12.4879L124.883 12.481L123.589 11.948ZM123.561 16.54L122.253 17.04L122.258 17.0531L123.561 16.54ZM124.681 17.968L125.458 16.8031L125.458 16.8031L124.681 17.968ZM128.377 18.108L127.731 16.8659L127.721 16.8714L127.71 16.877L128.377 18.108ZM129.357 17.128V15.728H128.455L128.082 16.5487L129.357 17.128ZM134.005 17.128L135.374 17.4213L135.737 15.728H134.005V17.128ZM132.661 19.928L131.577 19.0415L131.571 19.0489L131.565 19.0565L132.661 19.928ZM130.141 21.86L129.562 20.5855L129.553 20.5895L130.141 21.86ZM126.641 21.16C125.495 21.16 124.537 20.9638 123.738 20.6087L122.6 23.1673C123.817 23.7082 125.174 23.96 126.641 23.96V21.16ZM123.738 20.6087C122.896 20.2346 122.211 19.7399 121.66 19.13L119.582 21.0059C120.413 21.9268 121.426 22.6454 122.6 23.1673L123.738 20.6087ZM121.66 19.13C121.082 18.4889 120.64 17.7746 120.328 16.9809L117.722 18.0031C118.157 19.1134 118.779 20.1164 119.582 21.006L121.66 19.13ZM120.337 17.0032C120.04 16.2064 119.893 15.3918 119.893 14.552H117.093C117.093 15.7282 117.301 16.8736 117.713 17.9808L120.337 17.0032ZM119.893 14.552V13.992H117.093V14.552H119.893ZM119.893 13.992C119.893 13.1086 120.042 12.2758 120.337 11.4848L117.713 10.5072C117.298 11.6202 117.093 12.7847 117.093 13.992H119.893ZM120.332 11.4986C120.646 10.6819 121.08 9.97155 121.634 9.35655L119.552 7.48345C118.762 8.36178 118.151 9.36879 117.718 10.4934L120.332 11.4986ZM121.621 9.37066C122.172 8.77514 122.848 8.29701 123.67 7.94028L122.556 5.37172C121.399 5.87366 120.396 6.57152 119.565 7.46934L121.621 9.37066ZM123.69 7.93133C124.473 7.57706 125.391 7.384 126.473 7.384V4.584C125.053 4.584 123.732 4.83894 122.535 5.38066L123.69 7.93133ZM126.473 7.384C127.921 7.384 129.054 7.70739 129.942 8.28041L131.46 5.92758C130.033 5.00728 128.347 4.584 126.473 4.584V7.384ZM129.942 8.28042C130.889 8.89112 131.605 9.69038 132.109 10.6981L134.613 9.4459C133.885 7.98962 132.828 6.81022 131.46 5.92758L129.942 8.28042ZM132.113 10.7058C132.623 11.7117 132.885 12.8182 132.885 14.048H135.685C135.685 12.4032 135.331 10.859 134.609 9.43823L132.113 10.7058ZM132.885 14.048V15.672H135.685V14.048H132.885ZM134.285 14.272H120.621V17.072H134.285V14.272ZM122.021 15.672V12.928H119.221V15.672H122.021ZM120.621 14.328H131.345V11.528H120.621V14.328ZM130.543 11.7802L128.779 13.0122L130.383 15.3078L132.147 14.0758L130.543 11.7802ZM130.981 14.16C130.981 13.1631 130.844 12.2343 130.514 11.4211L127.92 12.4749C128.075 12.8563 128.181 13.4022 128.181 14.16H130.981ZM130.533 11.4696C130.225 10.6234 129.716 9.89856 128.968 9.3903L127.394 11.7057C127.58 11.8321 127.761 12.0406 127.901 12.4264L130.533 11.4696ZM128.99 9.40557C128.251 8.88186 127.378 8.672 126.473 8.672V11.472C126.949 11.472 127.215 11.5795 127.372 11.6904L128.99 9.40557ZM126.473 8.672C125.572 8.672 124.718 8.88783 123.963 9.36327L125.455 11.7327C125.708 11.5735 126.03 11.472 126.473 11.472V8.672ZM123.975 9.35568C123.19 9.83891 122.645 10.564 122.294 11.4149L124.883 12.481C125.056 12.0626 125.257 11.8544 125.443 11.7403L123.975 9.35568ZM122.3 11.4012C121.941 12.2469 121.797 13.2336 121.797 14.3H124.597C124.597 13.4624 124.714 12.8811 124.878 12.4948L122.3 11.4012ZM121.797 14.3C121.797 15.2864 121.936 16.2098 122.253 17.04L124.869 16.04C124.701 15.6009 124.597 15.031 124.597 14.3H121.797ZM122.258 17.0531C122.596 17.909 123.14 18.6236 123.904 19.1329L125.458 16.8031C125.213 16.6404 125.012 16.403 124.864 16.0269L122.258 17.0531ZM123.904 19.1329C124.702 19.6648 125.65 19.872 126.641 19.872V17.072C126.026 17.072 125.668 16.9432 125.458 16.8031L123.904 19.1329ZM126.641 19.872C127.497 19.872 128.326 19.7275 129.044 19.339L127.71 16.877C127.531 16.9738 127.204 17.072 126.641 17.072V19.872ZM129.023 19.3501C129.719 18.988 130.294 18.4487 130.631 17.7073L128.082 16.5487C128.046 16.6286 127.968 16.7426 127.731 16.8659L129.023 19.3501ZM129.357 18.528H134.005V15.728H129.357V18.528ZM132.636 16.8347C132.458 17.6641 132.107 18.3937 131.577 19.0415L133.744 20.8145C134.558 19.8196 135.104 18.6826 135.374 17.4213L132.636 16.8347ZM131.565 19.0565C131.06 19.6918 130.402 20.2034 129.562 20.5855L130.72 23.1345C131.933 22.5832 132.955 21.8069 133.757 20.7995L131.565 19.0565ZM129.553 20.5895C128.761 20.956 127.802 21.16 126.641 21.16V23.96C128.131 23.96 129.505 23.6973 130.729 23.1305L129.553 20.5895ZM136.411 22H135.011V23.4H136.411V22ZM136.411 6.544V5.144H135.011V6.544H136.411ZM140.443 6.544H141.843V5.144H140.443V6.544ZM140.443 13.264V14.664H141.843V13.264H140.443ZM140.387 13.264H138.987V14.664H140.387V13.264ZM141.731 8.168L140.607 7.33342L140.599 7.34456L141.731 8.168ZM146.267 6.32H147.667V4.92H146.267V6.32ZM146.267 10.688V12.088H147.667V10.688H146.267ZM142.431 11.612L141.456 10.6074L141.448 10.6147L141.441 10.622L142.431 11.612ZM141.507 22V23.4H142.907V22H141.507ZM137.811 22V6.544H135.011V22H137.811ZM136.411 7.944H140.443V5.144H136.411V7.944ZM139.043 6.544V13.264H141.843V6.544H139.043ZM140.443 11.864H140.387V14.664H140.443V11.864ZM141.787 13.264C141.787 11.274 142.201 9.90225 142.863 8.99144L140.599 7.34456C139.469 8.89774 138.987 10.9233 138.987 13.264H141.787ZM142.855 9.00254C143.475 8.16805 144.341 7.72 145.651 7.72V4.92C143.564 4.92 141.817 5.70395 140.607 7.33346L142.855 9.00254ZM145.651 7.72H146.267V4.92H145.651V7.72ZM144.867 6.32V10.688H147.667V6.32H144.867ZM146.267 9.288H145.091V12.088H146.267V9.288ZM145.091 9.288C143.697 9.288 142.421 9.67092 141.456 10.6074L143.406 12.6166C143.711 12.3211 144.207 12.088 145.091 12.088V9.288ZM141.441 10.622C140.485 11.5781 140.107 12.8695 140.107 14.272H142.907C142.907 13.3598 143.145 12.8779 143.421 12.6019L141.441 10.622ZM140.107 14.272V22H142.907V14.272H140.107ZM141.507 20.6H136.411V23.4H141.507V20.6Z" fill="black" mask="url(#path-1-outside-1_320_288)"/>
</svg>
