<?xml version="1.0" encoding="UTF-8"?>
<svg version="1.1" xmlns="http://www.w3.org/2000/svg" width="26" height="34">
<path d="M0 0 C8.58 0 17.16 0 26 0 C26 11.22 26 22.44 26 34 C17.42 34 8.84 34 0 34 C0 22.78 0 11.56 0 0 Z " fill="#4A4A4A" transform="translate(0,0)"/>
<path d="M0 0 C0.66 0 1.32 0 2 0 C2 0.99 2 1.98 2 3 C4.64 3.33 7.28 3.66 10 4 C10 7.63 10 11.26 10 15 C6 15 6 15 4 14 C4 11.69 4 9.38 4 7 C3.34 7 2.68 7 2 7 C2 8.98 2 10.96 2 13 C1.34 12.67 0.68 12.34 0 12 C0 8.04 0 4.08 0 0 Z " fill="#9D3635" transform="translate(9,11)"/>
<path d="M0 0 C2.64 0 5.28 0 8 0 C8 3.63 8 7.26 8 11 C7.01 11.33 6.02 11.66 5 12 C3.39274365 8.78548731 3.94251815 5.56387464 4 2 C2.68 1.34 1.36 0.68 0 0 Z " fill="#773F3D" transform="translate(11,15)"/>
</svg>
