<svg width="60" height="24" viewBox="0 0 60 24" fill="none" xmlns="http://www.w3.org/2000/svg">
<mask id="path-1-outside-1_348_482" maskUnits="userSpaceOnUse" x="0" y="0.204102" width="60" height="24" fill="black">
<rect fill="white" y="0.204102" width="60" height="24"/>
<path d="M11.212 22.4281C9.532 22.4281 8.188 22.2228 7.18 21.8121C6.19067 21.4014 5.472 20.7201 5.024 19.7681C4.576 18.8161 4.352 17.5281 4.352 15.9041L4.38 2.7161H9.084L9.056 16.0441C9.056 16.7348 9.23333 17.2668 9.588 17.6401C9.96133 17.9948 10.4933 18.1721 11.184 18.1721H13.312V22.4281H11.212ZM2.112 10.4441V6.7481H13.312V10.4441H2.112ZM24.7806 22.2041V17.6681H23.9406V12.8241C23.9406 12.1148 23.7726 11.5921 23.4366 11.2561C23.1193 10.9014 22.5873 10.7241 21.8406 10.7241C21.486 10.7241 20.9633 10.7334 20.2726 10.7521C19.582 10.7708 18.854 10.7988 18.0886 10.8361C17.3233 10.8734 16.6233 10.9108 15.9886 10.9481V6.6921C16.4366 6.65477 16.9686 6.61743 17.5846 6.5801C18.2006 6.54277 18.8353 6.51477 19.4886 6.4961C20.1606 6.47743 20.7766 6.4681 21.3366 6.4681C22.9233 6.4681 24.2673 6.70143 25.3686 7.1681C26.4886 7.63477 27.338 8.33477 27.9166 9.2681C28.514 10.2014 28.8126 11.3868 28.8126 12.8241V22.2041H24.7806ZM19.8806 22.5961C18.798 22.5961 17.8366 22.4001 16.9966 22.0081C16.1566 21.6161 15.494 21.0561 15.0086 20.3281C14.542 19.5814 14.3086 18.6948 14.3086 17.6681C14.3086 16.5108 14.6166 15.5774 15.2326 14.8681C15.8486 14.1401 16.698 13.6081 17.7806 13.2721C18.8633 12.9361 20.1046 12.7681 21.5046 12.7681H24.5006V15.4001H21.5046C20.814 15.4001 20.282 15.5774 19.9086 15.9321C19.5353 16.2681 19.3486 16.7254 19.3486 17.3041C19.3486 17.8641 19.5353 18.3214 19.9086 18.6761C20.282 19.0121 20.814 19.1801 21.5046 19.1801C21.9526 19.1801 22.3446 19.1054 22.6806 18.9561C23.0353 18.7881 23.3246 18.5081 23.5486 18.1161C23.7726 17.7241 23.9033 17.1828 23.9406 16.4921L25.1166 17.6121C25.0233 18.6761 24.762 19.5814 24.3326 20.3281C23.922 21.0561 23.3433 21.6161 22.5966 22.0081C21.8686 22.4001 20.9633 22.5961 19.8806 22.5961ZM31.8817 22.2041V1.7641H36.9777V22.2041H31.8817ZM30.1457 5.4601V1.7641H36.9777V5.4601H30.1457ZM51.1518 22.2041L46.5878 14.9801H44.5158L50.5638 6.7481H55.8838L50.1438 14.5041V12.0401L56.8358 22.2041H51.1518ZM40.1758 22.2041V1.7641H45.2718V22.2041H40.1758Z"/>
</mask>
<path d="M7.18 21.8121L6.64326 23.1052L6.65178 23.1086L7.18 21.8121ZM5.024 19.7681L3.75725 20.3642L5.024 19.7681ZM4.352 15.9041L2.952 15.9011V15.9041H4.352ZM4.38 2.7161V1.3161H2.98297L2.98 2.71313L4.38 2.7161ZM9.084 2.7161L10.484 2.71904L10.4869 1.3161H9.084V2.7161ZM9.056 16.0441L7.656 16.0412V16.0441H9.056ZM9.588 17.6401L8.573 18.6044L8.59773 18.6304L8.62375 18.6551L9.588 17.6401ZM13.312 18.1721H14.712V16.7721H13.312V18.1721ZM13.312 22.4281V23.8281H14.712V22.4281H13.312ZM2.112 10.4441H0.712V11.8441H2.112V10.4441ZM2.112 6.7481V5.3481H0.712V6.7481H2.112ZM13.312 6.7481H14.712V5.3481H13.312V6.7481ZM13.312 10.4441V11.8441H14.712V10.4441H13.312ZM11.212 21.0281C9.62506 21.0281 8.48269 20.8311 7.70822 20.5156L6.65178 23.1086C7.89331 23.6144 9.43894 23.8281 11.212 23.8281V21.0281ZM7.71673 20.5191C7.04249 20.2392 6.58758 19.8028 6.29075 19.172L3.75725 20.3642C4.35642 21.6374 5.33885 22.5637 6.64327 23.1051L7.71673 20.5191ZM6.29075 19.172C5.96521 18.4802 5.752 17.423 5.752 15.9041H2.952C2.952 17.6332 3.18679 19.152 3.75725 20.3642L6.29075 19.172ZM5.752 15.9071L5.78 2.71907L2.98 2.71313L2.952 15.9011L5.752 15.9071ZM4.38 4.1161H9.084V1.3161H4.38V4.1161ZM7.684 2.71316L7.656 16.0412L10.456 16.047L10.484 2.71904L7.684 2.71316ZM7.656 16.0441C7.656 16.9684 7.89658 17.8923 8.573 18.6044L10.603 16.6759C10.5701 16.6412 10.456 16.5012 10.456 16.0441H7.656ZM8.62375 18.6551C9.33577 19.3315 10.2597 19.5721 11.184 19.5721V16.7721C10.7269 16.7721 10.5869 16.658 10.5522 16.6251L8.62375 18.6551ZM11.184 19.5721H13.312V16.7721H11.184V19.5721ZM11.912 18.1721V22.4281H14.712V18.1721H11.912ZM13.312 21.0281H11.212V23.8281H13.312V21.0281ZM3.512 10.4441V6.7481H0.712V10.4441H3.512ZM2.112 8.1481H13.312V5.3481H2.112V8.1481ZM11.912 6.7481V10.4441H14.712V6.7481H11.912ZM13.312 9.0441H2.112V11.8441H13.312V9.0441ZM24.7806 22.2041H23.3806V23.6041H24.7806V22.2041ZM24.7806 17.6681H26.1806V16.2681H24.7806V17.6681ZM23.9406 17.6681H22.5406V19.0681H23.9406V17.6681ZM23.4366 11.2561L22.3933 12.1896L22.4192 12.2186L22.4467 12.246L23.4366 11.2561ZM20.2726 10.7521L20.3104 12.1516H20.3104L20.2726 10.7521ZM18.0886 10.8361L18.1568 12.2344L18.0886 10.8361ZM15.9886 10.9481H14.5886V12.4329L16.0708 12.3457L15.9886 10.9481ZM15.9886 6.6921L15.8724 5.29694L14.5886 5.40392V6.6921H15.9886ZM17.5846 6.5801L17.4999 5.18266L17.5846 6.5801ZM19.4886 6.4961L19.4498 5.09664L19.4486 5.09667L19.4886 6.4961ZM25.3686 7.1681L24.8224 8.45718L24.8302 8.46041L25.3686 7.1681ZM27.9166 9.2681L26.7268 10.0058L26.732 10.0143L26.7374 10.0228L27.9166 9.2681ZM28.8126 22.2041V23.6041H30.2126V22.2041H28.8126ZM15.0086 20.3281L13.8214 21.0701L13.8323 21.0876L13.8438 21.1047L15.0086 20.3281ZM15.2326 14.8681L16.2897 15.7861L16.2956 15.7793L16.3014 15.7724L15.2326 14.8681ZM17.7806 13.2721L18.1956 14.6092L17.7806 13.2721ZM24.5006 12.7681H25.9006V11.3681H24.5006V12.7681ZM24.5006 15.4001V16.8001H25.9006V15.4001H24.5006ZM19.9086 15.9321L20.8452 16.9727L20.8592 16.9601L20.8729 16.9471L19.9086 15.9321ZM19.9086 18.6761L18.9444 19.6911L18.9581 19.7041L18.9721 19.7167L19.9086 18.6761ZM22.6806 18.9561L23.2492 20.2354L23.2647 20.2286L23.2799 20.2213L22.6806 18.9561ZM23.5486 18.1161L22.3331 17.4215V17.4215L23.5486 18.1161ZM23.9406 16.4921L24.9061 15.4783L22.7066 13.3835L22.5427 16.4165L23.9406 16.4921ZM25.1166 17.6121L26.5113 17.7344L26.5702 17.0631L26.0821 16.5983L25.1166 17.6121ZM24.3326 20.3281L23.1189 19.6302L23.1133 19.6403L24.3326 20.3281ZM22.5966 22.0081L21.9459 20.7685L21.9394 20.772L21.9329 20.7754L22.5966 22.0081ZM26.1806 22.2041V17.6681H23.3806V22.2041H26.1806ZM24.7806 16.2681H23.9406V19.0681H24.7806V16.2681ZM25.3406 17.6681V12.8241H22.5406V17.6681H25.3406ZM25.3406 12.8241C25.3406 11.9246 25.1302 10.9698 24.4266 10.2662L22.4467 12.246C22.415 12.2144 22.5406 12.3049 22.5406 12.8241H25.3406ZM24.48 10.3226C23.7775 9.53752 22.7619 9.3241 21.8406 9.3241V12.1241C22.1102 12.1241 22.2721 12.157 22.3569 12.1853C22.4332 12.2107 22.4239 12.2239 22.3933 12.1896L24.48 10.3226ZM21.8406 9.3241C21.4665 9.3241 20.9287 9.33386 20.2348 9.35261L20.3104 12.1516C20.9979 12.133 21.5054 12.1241 21.8406 12.1241V9.3241ZM20.2348 9.35261C19.533 9.37158 18.7948 9.39999 18.0204 9.43776L18.1568 12.2344C18.9131 12.1975 19.6309 12.17 20.3104 12.1516L20.2348 9.35261ZM18.0204 9.43776C17.2513 9.47528 16.5466 9.51286 15.9064 9.55052L16.0708 12.3457C16.7 12.3087 17.3953 12.2716 18.1568 12.2344L18.0204 9.43776ZM17.3886 10.9481V6.6921H14.5886V10.9481H17.3886ZM16.1049 8.08727C16.5393 8.05106 17.0603 8.01445 17.6693 7.97754L17.4999 5.18266C16.877 5.22042 16.3339 5.25847 15.8724 5.29694L16.1049 8.08727ZM17.6693 7.97754C18.2696 7.94116 18.8893 7.9138 19.5286 7.89553L19.4486 5.09667C18.7813 5.11574 18.1317 5.14438 17.4999 5.18266L17.6693 7.97754ZM19.5275 7.89556C20.189 7.87718 20.7918 7.8681 21.3366 7.8681V5.0681C20.7614 5.0681 20.1322 5.07768 19.4498 5.09664L19.5275 7.89556ZM21.3366 7.8681C22.7937 7.8681 23.9403 8.0834 24.8224 8.45715L25.9148 5.87905C24.5942 5.31947 23.0529 5.0681 21.3366 5.0681V7.8681ZM24.8302 8.46041C25.7101 8.82706 26.3181 9.34676 26.7268 10.0058L29.1065 8.53039C28.3578 7.32278 27.2671 6.44247 25.9071 5.87579L24.8302 8.46041ZM26.7374 10.0228C27.1535 10.6729 27.4126 11.5759 27.4126 12.8241H30.2126C30.2126 11.1976 29.8744 9.73 29.0958 8.51343L26.7374 10.0228ZM27.4126 12.8241V22.2041H30.2126V12.8241H27.4126ZM28.8126 20.8041H24.7806V23.6041H28.8126V20.8041ZM19.8806 21.1961C18.9684 21.1961 18.2147 21.0316 17.5887 20.7394L16.4046 23.2768C17.4586 23.7686 18.6275 23.9961 19.8806 23.9961V21.1961ZM17.5887 20.7394C16.9667 20.4492 16.508 20.0533 16.1735 19.5515L13.8438 21.1047C14.4799 22.0589 15.3466 22.783 16.4046 23.2768L17.5887 20.7394ZM16.1958 19.5861C15.89 19.0967 15.7086 18.4767 15.7086 17.6681H12.9086C12.9086 18.9128 13.1939 20.0661 13.8214 21.0701L16.1958 19.5861ZM15.7086 17.6681C15.7086 16.7668 15.9429 16.1854 16.2897 15.7861L14.1756 13.9501C13.2904 14.9695 12.9086 16.2548 12.9086 17.6681H15.7086ZM16.3014 15.7724C16.7149 15.2837 17.3189 14.8813 18.1956 14.6092L17.3657 11.935C16.077 12.3349 14.9824 12.9965 14.1639 13.9638L16.3014 15.7724ZM18.1956 14.6092C19.1166 14.3233 20.2136 14.1681 21.5046 14.1681V11.3681C19.9956 11.3681 18.6099 11.5489 17.3657 11.935L18.1956 14.6092ZM21.5046 14.1681H24.5006V11.3681H21.5046V14.1681ZM23.1006 12.7681V15.4001H25.9006V12.7681H23.1006ZM24.5006 14.0001H21.5046V16.8001H24.5006V14.0001ZM21.5046 14.0001C20.5804 14.0001 19.6564 14.2407 18.9444 14.9171L20.8729 16.9471C20.9075 16.9142 21.0476 16.8001 21.5046 16.8001V14.0001ZM18.9721 14.8915C18.2576 15.5345 17.9486 16.3951 17.9486 17.3041H20.7486C20.7486 17.0558 20.8129 17.0017 20.8452 16.9727L18.9721 14.8915ZM17.9486 17.3041C17.9486 18.2105 18.2669 19.0475 18.9444 19.6911L20.8729 17.6611C20.8037 17.5954 20.7486 17.5177 20.7486 17.3041H17.9486ZM18.9721 19.7167C19.6853 20.3586 20.5986 20.5801 21.5046 20.5801V17.7801C21.0293 17.7801 20.8786 17.6656 20.8452 17.6355L18.9721 19.7167ZM21.5046 20.5801C22.1067 20.5801 22.6996 20.4797 23.2492 20.2354L22.112 17.6768C21.9897 17.7311 21.7986 17.7801 21.5046 17.7801V20.5801ZM23.2799 20.2213C23.9311 19.9129 24.4201 19.4128 24.7642 18.8107L22.3331 17.4215C22.2292 17.6034 22.1395 17.6633 22.0813 17.6909L23.2799 20.2213ZM24.7642 18.8107C25.1387 18.1553 25.2952 17.3709 25.3386 16.5677L22.5427 16.4165C22.5114 16.9947 22.4066 17.2929 22.3331 17.4215L24.7642 18.8107ZM22.9751 17.5059L24.1511 18.6259L26.0821 16.5983L24.9061 15.4783L22.9751 17.5059ZM23.722 17.4898C23.6423 18.3985 23.4255 19.0971 23.119 19.6302L25.5463 21.026C26.0984 20.0658 26.4043 18.9537 26.5113 17.7344L23.722 17.4898ZM23.1133 19.6403C22.8363 20.1312 22.4561 20.5007 21.9459 20.7685L23.2474 23.2477C24.2305 22.7315 25.0076 21.981 25.552 21.016L23.1133 19.6403ZM21.9329 20.7754C21.4623 21.0289 20.8009 21.1961 19.8806 21.1961V23.9961C21.1256 23.9961 22.275 23.7714 23.2604 23.2408L21.9329 20.7754ZM31.8817 22.2041H30.4817V23.6041H31.8817V22.2041ZM31.8817 1.7641V0.364101H30.4817V1.7641H31.8817ZM36.9777 1.7641H38.3777V0.364101H36.9777V1.7641ZM36.9777 22.2041V23.6041H38.3777V22.2041H36.9777ZM30.1457 5.4601H28.7457V6.8601H30.1457V5.4601ZM30.1457 1.7641V0.364101H28.7457V1.7641H30.1457ZM36.9777 1.7641H38.3777V0.364101H36.9777V1.7641ZM36.9777 5.4601V6.8601H38.3777V5.4601H36.9777ZM33.2817 22.2041V1.7641H30.4817V22.2041H33.2817ZM31.8817 3.1641H36.9777V0.364101H31.8817V3.1641ZM35.5777 1.7641V22.2041H38.3777V1.7641H35.5777ZM36.9777 20.8041H31.8817V23.6041H36.9777V20.8041ZM31.5457 5.4601V1.7641H28.7457V5.4601H31.5457ZM30.1457 3.1641H36.9777V0.364101H30.1457V3.1641ZM35.5777 1.7641V5.4601H38.3777V1.7641H35.5777ZM36.9777 4.0601H30.1457V6.8601H36.9777V4.0601ZM51.1518 22.2041L49.9682 22.9519L50.3803 23.6041H51.1518V22.2041ZM46.5878 14.9801L47.7714 14.2323L47.3593 13.5801H46.5878V14.9801ZM44.5158 14.9801L43.3876 14.1512L41.75 16.3801H44.5158V14.9801ZM50.5638 6.7481V5.3481H49.8552L49.4356 5.91919L50.5638 6.7481ZM55.8838 6.7481L57.0092 7.58093L58.6616 5.3481H55.8838V6.7481ZM50.1438 14.5041H48.7438V18.7492L51.2692 15.3369L50.1438 14.5041ZM50.1438 12.0401L51.3131 11.2702L48.7438 7.36788V12.0401H50.1438ZM56.8358 22.2041V23.6041H59.4338L58.0051 21.4342L56.8358 22.2041ZM40.1758 22.2041H38.7758V23.6041H40.1758V22.2041ZM40.1758 1.7641V0.364101H38.7758V1.7641H40.1758ZM45.2718 1.7641H46.6718V0.364101H45.2718V1.7641ZM45.2718 22.2041V23.6041H46.6718V22.2041H45.2718ZM52.3354 21.4563L47.7714 14.2323L45.4042 15.7279L49.9682 22.9519L52.3354 21.4563ZM46.5878 13.5801H44.5158V16.3801H46.5878V13.5801ZM45.644 15.809L51.692 7.57701L49.4356 5.91919L43.3876 14.1512L45.644 15.809ZM50.5638 8.1481H55.8838V5.3481H50.5638V8.1481ZM54.7585 5.91527L49.0185 13.6713L51.2692 15.3369L57.0092 7.58093L54.7585 5.91527ZM51.5438 14.5041V12.0401H48.7438V14.5041H51.5438ZM48.9745 12.81L55.6665 22.974L58.0051 21.4342L51.3131 11.2702L48.9745 12.81ZM56.8358 20.8041H51.1518V23.6041H56.8358V20.8041ZM41.5758 22.2041V1.7641H38.7758V22.2041H41.5758ZM40.1758 3.1641H45.2718V0.364101H40.1758V3.1641ZM43.8718 1.7641V22.2041H46.6718V1.7641H43.8718ZM45.2718 20.8041H40.1758V23.6041H45.2718V20.8041Z" fill="black" mask="url(#path-1-outside-1_348_482)"/>
</svg>
